<?xml version="1.0" encoding="UTF-8" standalone="no"?>
<svg
   inkscape:export-ydpi="300.03751"
   inkscape:export-xdpi="300.03751"
   inkscape:export-filename="/Users/chainz/Documents/Projects/mystack/tech/assets/2020-09-04-diagrams.png"
   sodipodi:docname="column-oriented.svg"
   inkscape:version="1.3.2 (091e20e, 2023-11-25)"
   id="svg8"
   version="1.1"
   viewBox="0 0 100 29"
   height="29mm"
   width="100mm"
   xml:space="preserve"
   xmlns:inkscape="http://www.inkscape.org/namespaces/inkscape"
   xmlns:sodipodi="http://sodipodi.sourceforge.net/DTD/sodipodi-0.dtd"
   xmlns="http://www.w3.org/2000/svg"
   xmlns:svg="http://www.w3.org/2000/svg"
   xmlns:rdf="http://www.w3.org/1999/02/22-rdf-syntax-ns#"
   xmlns:cc="http://creativecommons.org/ns#"
   xmlns:dc="http://purl.org/dc/elements/1.1/"><defs
     id="defs2"><marker
       inkscape:isstock="true"
       style="overflow:visible"
       id="marker2994"
       refX="0"
       refY="0"
       orient="auto"
       inkscape:stockid="Arrow1Lend"
       viewBox="0 0 17.773854 10.156488"
       markerWidth="7.9999995"
       markerHeight="4.5714283"
       preserveAspectRatio="xMidYMid"><path
         transform="matrix(-0.8,0,0,-0.8,-10,0)"
         style="fill:#71589b;fill-opacity:1;fill-rule:evenodd;stroke:#71589b;stroke-width:1pt;stroke-opacity:1"
         d="M 0,0 5,-5 -12.5,0 5,5 Z"
         id="path2992" /></marker><marker
       inkscape:stockid="Arrow1Lend"
       orient="auto"
       refY="0"
       refX="0"
       id="marker1881"
       style="overflow:visible"
       inkscape:isstock="true"
       viewBox="0 0 17.773854 10.156488"
       markerWidth="17.773853"
       markerHeight="10.156488"
       preserveAspectRatio="xMidYMid"><path
         id="path1879"
         d="M 0,0 5,-5 -12.5,0 5,5 Z"
         style="fill:#71589b;fill-opacity:1;fill-rule:evenodd;stroke:#71589b;stroke-width:1pt;stroke-opacity:1"
         transform="matrix(-0.8,0,0,-0.8,-10,0)" /></marker><marker
       inkscape:stockid="Arrow1Lend"
       orient="auto"
       refY="0"
       refX="0"
       id="marker1528"
       style="overflow:visible"
       inkscape:isstock="true"><path
         id="path1526"
         d="M 0,0 5,-5 -12.5,0 5,5 Z"
         style="fill:#71589b;fill-opacity:1;fill-rule:evenodd;stroke:#71589b;stroke-width:1pt;stroke-opacity:1"
         transform="matrix(-0.8,0,0,-0.8,-10,0)" /></marker><marker
       inkscape:stockid="Arrow1Lend"
       orient="auto"
       refY="0"
       refX="0"
       id="marker1436"
       style="overflow:visible"
       inkscape:isstock="true"><path
         id="path1434"
         d="M 0,0 5,-5 -12.5,0 5,5 Z"
         style="fill:#71589b;fill-opacity:1;fill-rule:evenodd;stroke:#71589b;stroke-width:1pt;stroke-opacity:1"
         transform="matrix(-0.8,0,0,-0.8,-10,0)" /></marker><marker
       inkscape:isstock="true"
       style="overflow:visible"
       id="marker937"
       refX="0"
       refY="0"
       orient="auto"
       inkscape:stockid="Arrow1Lend"><path
         transform="matrix(-0.8,0,0,-0.8,-10,0)"
         style="fill:#71589b;fill-opacity:1;fill-rule:evenodd;stroke:#71589b;stroke-width:1pt;stroke-opacity:1"
         d="M 0,0 5,-5 -12.5,0 5,5 Z"
         id="path935" /></marker><marker
       inkscape:isstock="true"
       style="overflow:visible"
       id="marker1923"
       refX="0"
       refY="0"
       orient="auto"
       inkscape:stockid="Arrow1Lend"><path
         transform="matrix(-0.8,0,0,-0.8,-10,0)"
         style="fill:#71589b;fill-opacity:1;fill-rule:evenodd;stroke:#71589b;stroke-width:1pt;stroke-opacity:1"
         d="M 0,0 5,-5 -12.5,0 5,5 Z"
         id="path1921" /></marker><marker
       inkscape:isstock="true"
       style="overflow:visible"
       id="marker1871"
       refX="0"
       refY="0"
       orient="auto"
       inkscape:stockid="Arrow1Lend"><path
         transform="matrix(-0.8,0,0,-0.8,-10,0)"
         style="fill:#71589b;fill-opacity:1;fill-rule:evenodd;stroke:#71589b;stroke-width:1pt;stroke-opacity:1"
         d="M 0,0 5,-5 -12.5,0 5,5 Z"
         id="path1869" /></marker><marker
       inkscape:stockid="Arrow1Lend"
       orient="auto"
       refY="0"
       refX="0"
       id="marker1762"
       style="overflow:visible"
       inkscape:isstock="true"><path
         id="path1760"
         d="M 0,0 5,-5 -12.5,0 5,5 Z"
         style="fill:#71589b;fill-opacity:1;fill-rule:evenodd;stroke:#71589b;stroke-width:1pt;stroke-opacity:1"
         transform="matrix(-0.8,0,0,-0.8,-10,0)" /></marker><marker
       inkscape:stockid="Arrow1Lend"
       orient="auto"
       refY="0"
       refX="0"
       id="marker1752"
       style="overflow:visible"
       inkscape:isstock="true"
       viewBox="0 0 17.773854 10.156488"
       markerWidth="17.773853"
       markerHeight="10.156488"
       preserveAspectRatio="xMidYMid"><path
         id="path1750"
         d="M 0,0 5,-5 -12.5,0 5,5 Z"
         style="fill:#71589b;fill-opacity:1;fill-rule:evenodd;stroke:#71589b;stroke-width:1pt;stroke-opacity:1"
         transform="matrix(-0.8,0,0,-0.8,-10,0)" /></marker><marker
       inkscape:isstock="true"
       style="overflow:visible"
       id="marker1542"
       refX="0"
       refY="0"
       orient="auto"
       inkscape:stockid="Arrow1Lend"><path
         transform="matrix(-0.8,0,0,-0.8,-10,0)"
         style="fill:#71589b;fill-opacity:1;fill-rule:evenodd;stroke:#71589b;stroke-width:1pt;stroke-opacity:1"
         d="M 0,0 5,-5 -12.5,0 5,5 Z"
         id="path1540" /></marker><marker
       inkscape:isstock="true"
       style="overflow:visible"
       id="Arrow1Lstart"
       refX="0"
       refY="0"
       orient="auto"
       inkscape:stockid="Arrow1Lstart"><path
         transform="matrix(0.8,0,0,0.8,10,0)"
         style="fill:#000000;fill-opacity:1;fill-rule:evenodd;stroke:#000000;stroke-width:1pt;stroke-opacity:1"
         d="M 0,0 5,-5 -12.5,0 5,5 Z"
         id="path1205" /></marker><marker
       inkscape:isstock="true"
       style="overflow:visible"
       id="marker1528-6"
       refX="0"
       refY="0"
       orient="auto"
       inkscape:stockid="Arrow1Lend"><path
         transform="matrix(-0.8,0,0,-0.8,-10,0)"
         style="fill:#71589b;fill-opacity:1;fill-rule:evenodd;stroke:#71589b;stroke-width:1pt;stroke-opacity:1"
         d="M 0,0 5,-5 -12.5,0 5,5 Z"
         id="path1526-5" /></marker></defs><sodipodi:namedview
     inkscape:snap-global="true"
     height="250mm"
     inkscape:document-rotation="0"
     inkscape:guide-bbox="true"
     inkscape:window-maximized="0"
     inkscape:window-y="38"
     inkscape:window-x="0"
     inkscape:window-height="1051"
     inkscape:window-width="1728"
     showguides="true"
     width="144mm"
     showgrid="false"
     inkscape:current-layer="g24320"
     inkscape:document-units="mm"
     inkscape:cy="57.57373"
     inkscape:cx="174.5092"
     inkscape:zoom="2.7964142"
     inkscape:pageshadow="2"
     inkscape:pageopacity="0"
     borderopacity="1.0"
     bordercolor="#666666"
     pagecolor="#0b2318"
     id="base"
     inkscape:showpageshadow="2"
     inkscape:pagecheckerboard="0"
     inkscape:deskcolor="#d1d1d1" /><metadata
     id="metadata5"><rdf:RDF><cc:Work
         rdf:about=""><dc:format>image/svg+xml</dc:format><dc:type
           rdf:resource="http://purl.org/dc/dcmitype/StillImage" /></cc:Work></rdf:RDF></metadata><g
     transform="translate(0,703)"
     id="layer1"
     inkscape:groupmode="layer"
     inkscape:label="Layer 1"><g
       transform="translate(-1.0992445,-0.53617761)"
       id="g24320"><path
         style="font-size:3.88056px;line-height:1.25;font-family:'PT Sans';-inkscape-font-specification:'PT Sans';text-align:center;letter-spacing:0px;word-spacing:0px;text-anchor:middle;fill:#ffffff;stroke-width:0.264583"
         d="m 38.590562,-698.74086 -0.651934,-0.94686 h 0.380295 l 0.368653,0.53552 0.108655,0.22119 0.112537,-0.22119 0.376414,-0.53552 h 0.34925 l -0.655814,0.93134 0.69462,1.00894 h -0.368653 l -0.41134,-0.58984 -0.116416,-0.23284 -0.120298,0.23284 -0.4191,0.58984 h -0.34537 z m 2.343856,0.46567 q 0,-0.11642 -0.06985,-0.18239 -0.06985,-0.066 -0.174626,-0.10865 -0.100894,-0.0466 -0.225072,-0.0854 -0.120297,-0.0427 -0.225073,-0.10477 -0.100894,-0.066 -0.170744,-0.16687 -0.06985,-0.10089 -0.06985,-0.27164 0,-0.2794 0.159103,-0.40745 0.159103,-0.13194 0.442383,-0.13194 0.209551,0 0.349251,0.0388 0.143581,0.0349 0.248356,0.0854 l -0.07373,0.25612 q -0.08925,-0.0427 -0.217311,-0.0737 -0.124178,-0.0349 -0.267759,-0.0349 -0.170745,0 -0.252236,0.0582 -0.07761,0.0582 -0.07761,0.20179 0,0.1009 0.06985,0.15911 0.06985,0.0543 0.170744,0.10089 0.104775,0.0427 0.225073,0.0854 0.124178,0.0427 0.225072,0.11254 0.104775,0.0698 0.174625,0.17851 0.06985,0.10477 0.06985,0.2794 0,0.12417 -0.04269,0.23283 -0.03881,0.10865 -0.124178,0.18627 -0.08537,0.0776 -0.21343,0.12029 -0.124178,0.0466 -0.294923,0.0466 -0.221192,0 -0.376414,-0.0427 -0.155223,-0.0427 -0.259998,-0.10089 l 0.09313,-0.26388 q 0.08925,0.0505 0.232833,0.0931 0.143581,0.0427 0.291042,0.0427 0.166864,0 0.27552,-0.066 0.108656,-0.066 0.108656,-0.23671 z m 1.67252,-1.24566 h 1.645357 v 0.2794 h -1.645357 z m 0,0.64417 h 1.645357 v 0.2794 h -1.645357 z m 3.170415,-1.58715 h 0.702381 v 0.27164 h -0.399698 v 3.06564 h 0.399698 v 0.27164 h -0.702381 z m 3.108332,2.4758 c 0.585965,0 1.067154,-0.47731 1.067154,-1.06716 0,-0.58596 -0.481189,-1.07103 -1.067154,-1.07103 -0.585964,0 -1.067154,0.48507 -1.067154,1.07103 0,0.58985 0.48119,1.06716 1.067154,1.06716 z m 1.412521,0.0737 q 0,-0.0931 0.06209,-0.15134 0.06209,-0.0582 0.159103,-0.0582 0.120298,0 0.194028,0.0854 0.07761,0.0854 0.07761,0.24836 0,0.1397 -0.03881,0.24447 -0.03881,0.10478 -0.100895,0.17851 -0.06209,0.0776 -0.135819,0.12418 -0.07373,0.0504 -0.147462,0.0737 l -0.09701,-0.15134 q 0.139701,-0.0543 0.20567,-0.17075 0.06985,-0.11254 0.06985,-0.22895 -0.03493,0.0116 -0.06597,0.0116 -0.07761,0 -0.131939,-0.0505 -0.05045,-0.0543 -0.05045,-0.15522 z m 2.522367,-0.0737 c 0.585965,0 1.067154,-0.47731 1.067154,-1.06716 0,-0.58596 -0.481189,-1.07103 -1.067154,-1.07103 -0.585964,0 -1.067154,0.48507 -1.067154,1.07103 0,0.58985 0.48119,1.06716 1.067154,1.06716 z m 1.41252,0.0737 q 0,-0.0931 0.06209,-0.15134 0.06209,-0.0582 0.159103,-0.0582 0.120298,0 0.194028,0.0854 0.07761,0.0854 0.07761,0.24836 0,0.1397 -0.0388,0.24447 -0.03881,0.10478 -0.100895,0.17851 -0.06209,0.0776 -0.135819,0.12418 -0.07373,0.0504 -0.147462,0.0737 l -0.09701,-0.15134 q 0.139701,-0.0543 0.20567,-0.17075 0.06985,-0.11254 0.06985,-0.22895 -0.03493,0.0116 -0.06597,0.0116 -0.07761,0 -0.131939,-0.0505 -0.05045,-0.0543 -0.05045,-0.15522 z m 3.496387,-0.0116 q 0,-0.10478 0.05821,-0.16299 0.06209,-0.0621 0.162984,-0.0621 0.104775,0 0.166864,0.0621 0.06209,0.0582 0.06209,0.16299 0,0.10089 -0.06209,0.16298 -0.06209,0.0621 -0.166864,0.0621 -0.100895,0 -0.162984,-0.0621 -0.05821,-0.0621 -0.05821,-0.16298 z m -0.985663,0 q 0,-0.10478 0.05821,-0.16299 0.06209,-0.0621 0.162983,-0.0621 0.104775,0 0.166864,0.0621 0.06209,0.0582 0.06209,0.16299 0,0.10089 -0.06209,0.16298 -0.06209,0.0621 -0.166864,0.0621 -0.100894,0 -0.162983,-0.0621 -0.05821,-0.0621 -0.05821,-0.16298 z m -0.985662,0 q 0,-0.10478 0.05821,-0.16299 0.06209,-0.0621 0.162983,-0.0621 0.104775,0 0.166864,0.0621 0.06209,0.0582 0.06209,0.16299 0,0.10089 -0.06209,0.16298 -0.06209,0.0621 -0.166864,0.0621 -0.100894,0 -0.162983,-0.0621 -0.05821,-0.0621 -0.05821,-0.16298 z m 4.256981,1.07103 h -0.706262 v -0.27164 h 0.403579 v -3.06564 h -0.403579 v -0.27164 h 0.706262 z"
         id="text24252-3"
         aria-label="xs = [ ⏺, ⏺, … ]" /><g
         id="g1"
         transform="translate(0,0.094615)"><path
           id="path915-9"
           style="color:#000000;fill:#ffffff;fill-rule:evenodd"
           d="m 48.636979,-699.08617 -8.25327,14.29508 -1.116589,-0.64466 0.0023,3.07495 0.248886,-0.14273 2.414786,-1.39304 -1.11659,-0.64466 8.25327,-14.29508 z"
           sodipodi:nodetypes="ccccccccc"
           inkscape:transform-center-y="8.2616126"
           inkscape:transform-center-x="4.6986885" /><g
           id="g8"
           transform="translate(4.0199353,-32.961013)"><text
             xml:space="preserve"
             style="font-style:normal;font-variant:normal;font-weight:normal;font-stretch:normal;font-size:6.35px;line-height:0.75;font-family:'PT Sans';-inkscape-font-specification:'PT Sans';text-align:center;letter-spacing:0px;word-spacing:0px;text-anchor:middle;fill:#ffffff;fill-opacity:1;stroke:none;stroke-width:0.264583"
             x="35.410069"
             y="-644.83917"
             id="text24252-3-0-7"><tspan
               sodipodi:role="line"
               x="35.410069"
               y="-644.83917"
               style="font-size:3.88056px;line-height:0.75;text-align:center;text-anchor:middle;fill:#ffffff;stroke-width:0.264583"
               id="tspan7-0">float</tspan></text><rect
             style="font-variation-settings:normal;fill:none;fill-opacity:1;stroke:#ffffff;stroke-width:0.264583px;stroke-linecap:butt;stroke-linejoin:miter;stroke-miterlimit:4;stroke-dasharray:none;stroke-dashoffset:0;stroke-opacity:1;stop-color:#000000"
             id="rect7-6"
             width="9.566781"
             height="6.2705078"
             x="30.588903"
             y="-649.15027"
             ry="0" /></g></g><g
         id="g2"><path
           id="path7"
           style="color:#000000;fill:#ffffff;fill-rule:evenodd"
           d="m 53.102824,-699.08617 8.25327,14.29508 1.116589,-0.64466 -0.0023,3.07495 -0.248886,-0.14273 -2.414786,-1.39304 1.11659,-0.64466 -8.25327,-14.29508 z"
           sodipodi:nodetypes="ccccccccc"
           inkscape:transform-center-y="8.2616126"
           inkscape:transform-center-x="-4.6986885" /><g
           id="g9"
           transform="translate(27.433966,-32.866398)"><text
             xml:space="preserve"
             style="font-style:normal;font-variant:normal;font-weight:normal;font-stretch:normal;font-size:6.35px;line-height:0.75;font-family:'PT Sans';-inkscape-font-specification:'PT Sans';text-align:center;letter-spacing:0px;word-spacing:0px;text-anchor:middle;fill:#ffffff;fill-opacity:1;stroke:none;stroke-width:0.264583"
             x="35.410069"
             y="-644.83917"
             id="text9"><tspan
               sodipodi:role="line"
               x="35.410069"
               y="-644.83917"
               style="font-size:3.88056px;line-height:0.75;text-align:center;text-anchor:middle;fill:#ffffff;stroke-width:0.264583"
               id="tspan9">float</tspan></text><rect
             style="font-variation-settings:normal;fill:none;fill-opacity:1;stroke:#ffffff;stroke-width:0.264583px;stroke-linecap:butt;stroke-linejoin:miter;stroke-miterlimit:4;stroke-dasharray:none;stroke-dashoffset:0;stroke-opacity:1;stop-color:#000000"
             id="rect9"
             width="9.566781"
             height="6.2705078"
             x="30.588903"
             y="-649.15027"
             ry="0" /></g></g></g></g></svg>
